<svg width="500" height="500" viewBox="0 0 500 500" fill="none" xmlns="http://www.w3.org/2000/svg">
<g clip-path="url(#clip0_52_63)">
<g clip-path="url(#clip1_52_63)">
<rect width="500" height="500" rx="20" fill="black"/>
<path d="M360.3 416C349.333 416 338.95 414.483 329.15 411.45C319.35 408.65 311.3 402.933 305 394.3C298.933 385.667 295.9 373.067 295.9 356.5V195.85C295.9 179.05 294.617 162.133 292.05 145.1C289.717 127.833 284.117 113.483 275.25 102.05C266.617 90.6166 252.967 84.9 234.3 84.9C221.233 84.9 208.283 86.5333 195.45 89.8C182.617 93.0666 170.833 97.7333 160.1 103.8C149.6 109.633 141.083 116.75 134.55 125.15C128.25 133.317 125.1 142.533 125.1 152.8H124.4C124.4 140.9 128.25 131.567 135.95 124.8C143.883 117.8 152.517 114.3 161.85 114.3C171.883 114.3 180.983 117.567 189.15 124.1C197.55 130.4 201.75 139.5 201.75 151.4C201.75 165.4 197.433 175.55 188.8 181.85C180.4 188.15 171.417 191.3 161.85 191.3C151.117 191.3 142.017 188.033 134.55 181.5C127.317 174.967 123.7 165.4 123.7 152.8C123.7 141.833 127.083 132.033 133.85 123.4C140.85 114.533 150.183 107.067 161.85 101C173.75 94.7 187.167 89.9166 202.1 86.65C217.033 83.15 232.433 81.4 248.3 81.4C280.5 81.4 304.417 87 320.05 98.2C335.917 109.4 346.3 123.75 351.2 141.25C356.333 158.75 358.9 176.95 358.9 195.85V377.15C358.9 385.55 360.533 392.9 363.8 399.2C367.3 405.267 374.067 408.3 384.1 408.3C392.267 408.3 401.25 404.333 411.05 396.4C421.083 388.467 429.017 377.85 434.85 364.55L435.9 365.25C429.833 380.183 420.033 392.433 406.5 402C392.967 411.333 377.567 416 360.3 416ZM198.95 416C168.617 416 144.35 408.3 126.15 392.9C108.183 377.267 99.2 356.15 99.2 329.55C99.2 298.283 112.267 274.367 138.4 257.8C164.767 241 202.8 232.6 252.5 232.6H328.45V234H252.5C231.967 234 215.75 239.133 203.85 249.4C192.183 259.433 183.783 271.567 178.65 285.8C173.75 300.033 171.3 313.567 171.3 326.4C171.3 338.067 172.7 350.317 175.5 363.15C178.3 375.75 183.2 386.483 190.2 395.35C197.2 403.983 206.767 408.3 218.9 408.3C232.9 408.3 245.733 404.1 257.4 395.7C269.067 387.067 278.4 373.533 285.4 355.1C292.4 336.667 295.9 312.517 295.9 282.65H297.3C297.3 309.25 294.033 332.583 287.5 352.65C280.967 372.717 270.467 388.35 256 399.55C241.767 410.517 222.75 416 198.95 416Z" fill="white"/>
</g>
</g>
<defs>
<clipPath id="clip0_52_63">
<rect width="500" height="500" fill="white"/>
</clipPath>
<clipPath id="clip1_52_63">
<rect width="500" height="500" rx="20" fill="white"/>
</clipPath>
</defs>
</svg>
