<svg width="16" height="16" viewBox="0 0 16 16" fill="none" xmlns="http://www.w3.org/2000/svg">
<path d="M14.2563 9.31875C14.209 9.16377 14.1128 9.02826 13.9822 8.93249C13.8515 8.83673 13.6933 8.78586 13.5313 8.7875C13.461 8.78977 13.3915 8.8024 13.325 8.825C12.4732 9.05879 11.5748 9.06277 10.7209 8.83654C9.86714 8.61031 9.0885 8.16194 8.46426 7.53706C7.84001 6.91218 7.39244 6.13309 7.16708 5.27905C6.94171 4.42502 6.94661 3.52653 7.18126 2.675C7.1957 2.61771 7.20408 2.55905 7.20626 2.5C7.21499 2.34351 7.17447 2.18821 7.09039 2.05593C7.00632 1.92365 6.88291 1.82104 6.73751 1.7625C6.57988 1.70138 6.40676 1.69262 6.24376 1.7375C5.1518 2.0447 4.15924 2.63231 3.36472 3.44194C2.57021 4.25157 2.00141 5.25503 1.71485 6.35259C1.42829 7.45015 1.43395 8.60359 1.73127 9.69828C2.02859 10.793 2.60721 11.7908 3.40963 12.5926C4.21205 13.3944 5.21033 13.9722 6.30525 14.2687C7.40018 14.5652 8.55362 14.5699 9.65096 14.2825C10.7483 13.9951 11.7513 13.4255 12.5603 12.6304C13.3693 11.8352 13.9562 10.8422 14.2625 9.75C14.3009 9.60851 14.2988 9.45907 14.2563 9.31875ZM8.00001 13C6.89751 13.0015 5.82545 12.6385 4.95061 11.9675C4.07577 11.2966 3.44722 10.3553 3.16275 9.29013C2.87828 8.22496 2.95383 7.09564 3.37767 6.07786C3.8015 5.06008 4.54984 4.21093 5.50626 3.6625C5.46056 4.57167 5.60597 5.48032 5.9331 6.32982C6.26023 7.17932 6.76183 7.95081 7.40552 8.5945C8.04921 9.23819 8.82069 9.73978 9.67019 10.0669C10.5197 10.394 11.4283 10.5395 12.3375 10.4938C11.8969 11.2544 11.2645 11.8861 10.5033 12.3259C9.74222 12.7657 8.87905 12.9981 8.00001 13Z" fill="white"/>
</svg>
